<svg width="18" height="18" viewBox="0 0 18 18" fill="none" xmlns="http://www.w3.org/2000/svg">
<path d="M17.841 6.49434C17.7187 6.33952 17.5394 6.24989 17.2907 6.22952H15.2527V6.18062C15.2119 2.77048 12.4076 0 8.99591 0C5.5883 0 2.78395 2.77048 2.74727 6.18062V6.22952H0.688844C0.460583 6.24989 0.273083 6.33952 0.154877 6.49434C-1.46186e-05 6.69398 -0.00816679 6.94658 0.00813756 7.04844L1.76901 17.4174C1.82607 17.7555 2.11955 18.0041 2.46194 18.0041H15.538C15.8845 18.0041 16.1739 17.7596 16.231 17.4215L17.9959 7.05251C18.0122 6.93029 17.9878 6.68176 17.841 6.49434ZM8.99591 1.40561C11.625 1.40561 13.8016 3.54459 13.8424 6.17248V6.22544H4.15352V6.17248C4.19428 3.54459 6.36683 1.40561 8.99591 1.40561ZM16.4633 7.63513L14.9429 16.5985H3.05705L1.53259 7.63513H16.4633V7.63513Z" fill="#202020"/>
</svg>
