<svg width="24" height="22" viewBox="0 0 24 22" fill="none" xmlns="http://www.w3.org/2000/svg">
<path d="M22.2991 1.77594C21.1648 0.591978 19.5981 0 17.5979 0C17.0443 0 16.4796 0.102844 15.9035 0.308029C15.3275 0.513215 14.7918 0.790141 14.2964 1.13881C13.8006 1.48747 13.3747 1.81456 13.0172 2.12009C12.6602 2.42561 12.3206 2.75019 11.9993 3.09384C11.678 2.75019 11.3384 2.42561 10.9814 2.12009C10.6239 1.81456 10.198 1.48747 9.70217 1.13881C9.20681 0.790141 8.67064 0.513215 8.09507 0.308029C7.51997 0.102844 6.95518 0 6.40166 0C4.40146 0 2.8347 0.591978 1.70092 1.77594C0.567129 2.96039 0 4.60238 0 6.7034C0 7.34304 0.105076 8.00224 0.314759 8.68001C0.524441 9.35777 0.763677 9.93571 1.03106 10.4133C1.29891 10.8904 1.60241 11.3565 1.94156 11.81C2.28071 12.2635 2.52886 12.576 2.68507 12.7481C2.84127 12.9197 2.96417 13.0441 3.0533 13.1203L11.4101 21.7432C11.571 21.9152 11.7671 22.001 11.9993 22.001C12.2315 22.001 12.428 21.9152 12.5885 21.7432L20.9322 13.1489C22.9769 10.9626 23.9991 8.81396 23.9991 6.7034C24 4.60238 23.4329 2.96039 22.2991 1.77594Z" fill="#E9E9E9"/>
</svg>
