<svg width="17" height="17" viewBox="0 0 17 17" fill="none" xmlns="http://www.w3.org/2000/svg">
<path d="M1.15924 14.2952H3.86383V16.6137C3.86383 16.7265 3.89992 16.8188 3.97254 16.891C4.04495 16.9637 4.13753 17 4.2503 17H6.26653C6.37117 17 6.46172 16.9637 6.5382 16.891C6.61468 16.8188 6.6528 16.7265 6.6528 16.6137V14.2952H12.7501C12.8626 14.2952 12.9552 14.2593 13.0278 14.1867C13.1005 14.1141 13.1365 14.0217 13.1365 13.9089V12.3634C13.1365 12.2512 13.1005 12.1582 13.0278 12.0861C12.9554 12.0134 12.8626 11.9771 12.7501 11.9771H6.6526V10.5523H10.7577C12.3675 10.5523 13.6813 10.0618 14.6998 9.07937C15.7179 8.09798 16.2273 6.83027 16.2273 5.27615C16.2273 3.72307 15.7179 2.45532 14.6998 1.47293C13.6815 0.491511 12.3674 0 10.7577 0H4.2501C4.1373 0 4.04492 0.036291 3.97234 0.108506C3.89992 0.181122 3.86363 0.274098 3.86363 0.38627V7.98091H1.15924C1.04646 7.98091 0.954054 8.01907 0.881472 8.09552C0.80909 8.172 0.772766 8.26254 0.772766 8.36715V10.166C0.772766 10.2788 0.808857 10.3712 0.881472 10.4438C0.954088 10.5164 1.04626 10.5523 1.15924 10.5523H3.86383V11.9771H1.15924C1.04646 11.9771 0.954054 12.0134 0.881472 12.086C0.80909 12.1582 0.772766 12.251 0.772766 12.3634V13.9089C0.772766 14.0217 0.808857 14.1141 0.881472 14.1867C0.954054 14.2593 1.04643 14.2952 1.15924 14.2952ZM6.6526 2.57199H10.5162C11.3694 2.57199 12.0575 2.82143 12.5808 3.32047C13.1039 3.81955 13.3656 4.47175 13.3656 5.27635C13.3656 6.08135 13.1039 6.73376 12.5808 7.23223C12.0575 7.73171 11.3693 7.98115 10.5162 7.98115H6.6526V2.57199Z" fill="#202020"/>
</svg>
